<?xml version="1.0" encoding="UTF-8"?>
<svg xmlns="http://www.w3.org/2000/svg" version="1.1" xmlns:xlink="http://www.w3.org/1999/xlink" viewBox="0 0 850 255.5">
  <defs>
    <style>
      .cls-1 {
        fill: url(#linear-gradient-2);
      }

      .cls-2 {
        fill: #fff;
      }

      .cls-3 {
        fill: url(#linear-gradient-4);
      }

      .cls-4 {
        fill: url(#linear-gradient-3);
      }

      .cls-5 {
        fill: url(#linear-gradient-5);
      }

      .cls-6 {
        fill: url(#linear-gradient);
      }
    </style>
    <linearGradient id="linear-gradient" x1="90.8" y1="815.6" x2="90.8" y2="656.6" gradientTransform="translate(0 -584)" gradientUnits="userSpaceOnUse">
      <stop offset="0" stop-color="#ff5923"/>
      <stop offset="1" stop-color="#f69000"/>
    </linearGradient>
    <linearGradient id="linear-gradient-2" x1="384.9" y1="815.4" x2="384.9" y2="656.5" xlink:href="#linear-gradient"/>
    <linearGradient id="linear-gradient-3" x1="479.1" y1="815.4" x2="479.1" y2="656.5" xlink:href="#linear-gradient"/>
    <linearGradient id="linear-gradient-4" x1="213.6" y1="845.5" x2="213.6" y2="626.4" xlink:href="#linear-gradient"/>
    <linearGradient id="linear-gradient-5" x1="278.2" y1="845.5" x2="278.2" y2="626.4" xlink:href="#linear-gradient"/>
  </defs>
  <!-- Generator: Adobe Illustrator 28.6.0, SVG Export Plug-In . SVG Version: 1.2.0 Build 709)  -->
  <g>
    <g id="Layer_1">
      <g>
        <path class="cls-2" d="M525.7,185.2h34.8v9h-24.7v9.4h21.8v9h-21.8v9.7h25.1v9h-35.2v-46.2Z"/>
        <path class="cls-2" d="M582.6,207.9l-15.4-22.7h11.9l9.6,15,9.8-15h11.5l-15.4,22.6,16.1,23.6h-11.9l-10.4-15.8-10.4,15.8h-11.5l16.1-23.5Z"/>
        <path class="cls-2" d="M618.3,185.2h18.9c11,0,17.7,6.5,17.7,16h0c0,10.8-8.3,16.4-18.7,16.4h-7.7v13.9h-10.2v-46.2ZM636.5,208.5c5.1,0,8.1-3,8.1-7h0c0-4.7-3.2-7.1-8.2-7.1h-7.9v14.1h8.1Z"/>
        <path class="cls-2" d="M662.4,185.2h21.1c5.9,0,10.4,1.6,13.5,4.7s4,6.2,4,10.6h0c0,7.6-4,12.3-9.9,14.5l11.3,16.5h-11.9l-9.9-14.8h-8v14.8h-10.2v-46.2ZM682.8,207.7c4.9,0,7.8-2.6,7.8-6.5h0c0-4.5-3-6.7-8-6.7h-10.1v13.3h10.3Z"/>
        <path class="cls-2" d="M710.1,185.2h34.8v9h-24.7v9.4h21.8v9h-21.8v9.7h25.1v9h-35.2v-46.2Z"/>
        <path class="cls-2" d="M751.1,224.7l6-7.2c4.2,3.4,8.5,5.6,13.8,5.6s6.7-1.6,6.7-4.4h0c0-2.7-1.6-4-9.3-6-9.3-2.4-15.3-5-15.3-14.1h0c0-8.5,6.7-14.1,16.2-14.1s12.5,2.1,17.2,5.9l-5.3,7.7c-4.1-2.8-8.1-4.6-12-4.6s-5.9,1.8-5.9,4h0c0,3.2,2,4.2,10,6.2,9.4,2.4,14.7,5.8,14.7,13.9h0c0,9.3-7,14.5-17,14.5s-14.1-2.4-19.6-7.4Z"/>
        <path class="cls-2" d="M792.7,224.7l6-7.2c4.2,3.4,8.5,5.6,13.8,5.6s6.7-1.6,6.7-4.4h0c0-2.7-1.6-4-9.3-6-9.3-2.4-15.3-5-15.3-14.1h0c0-8.5,6.7-14.1,16.2-14.1s12.5,2.1,17.2,5.9l-5.3,7.7c-4.1-2.8-8.1-4.6-12-4.6s-5.9,1.8-5.9,4h0c0,3.2,2,4.2,10,6.2,9.4,2.4,14.7,5.8,14.7,13.9h0c0,9.3-7,14.5-17,14.5s-14.1-2.4-19.6-7.4Z"/>
      </g>
      <g id="_Layer_">
        <path class="cls-6" d="M22.6,231.5h136.3v-66.1l-13.7-11.7,13.7-11.4v-69.7H22.6v159h0ZM68.1,113.7h45.4v20h-45.4v-20ZM68.1,173.2h45.4v20h-45.4s0-20,0-20Z"/>
        <polygon class="cls-1" points="378.1 72.5 332.7 72.5 332.7 231.4 437 231.4 437 186 378.1 186 378.1 72.5"/>
        <polygon class="cls-4" points="411 72.5 411 117.9 456.4 117.9 456.4 231.4 501.8 231.4 501.8 117.9 547.2 117.9 547.2 72.5 411 72.5"/>
        <g>
          <polygon class="cls-3" points="210.2 170.9 249.8 72.5 177.4 72.5 177.4 231.4 233.8 231.4 240.3 170.9 210.2 170.9"/>
          <polygon class="cls-5" points="313.7 72.5 258.7 72.5 252.1 133 282.3 133 242.6 231.4 313.7 231.4 313.7 72.5"/>
        </g>
      </g>
      <g id="_Layer_-2" data-name="_Layer_">
        <g>
          <path class="cls-2" d="M47.4,42.2c0,4.3-3.4,6.8-9.9,6.8h-12.9v-24.9h12.1c6.2,0,9.4,2.6,9.4,6.5s-1.3,4.4-3.3,5.5c2.8.8,4.6,2.9,4.6,6.1ZM30.3,28.4v5.9h5.7c2.8,0,4.3-1,4.3-2.9s-1.5-2.9-4.3-2.9h-5.7ZM41.6,41.5c0-2.1-1.6-3.1-4.6-3.1h-6.7v6.1h6.7c3,0,4.6-.8,4.6-3Z"/>
          <path class="cls-2" d="M60,38v-13.9h5.7v13.7c0,4.7,2.1,6.7,5.5,6.7s5.5-2,5.5-6.7v-13.7h5.7v13.9c0,7.3-4.2,11.4-11.2,11.4s-11.2-4.1-11.2-11.4Z"/>
          <path class="cls-2" d="M96.7,24.1h5.7v24.8h-5.7v-24.8Z"/>
          <path class="cls-2" d="M116.8,24.1h5.7v20.2h12.5v4.7h-18.2v-24.9Z"/>
          <path class="cls-2" d="M149.6,28.8h-7.9v-4.7h21.6v4.7h-7.9v20.2h-5.7v-20.2h-.1Z"/>
          <path class="cls-2" d="M228.9,24.1l-8.1,24.8h-6.2l-5.5-16.8-5.6,16.8h-6.1l-8.2-24.8h6l5.6,17.5,5.9-17.5h5.3l5.7,17.6,5.8-17.6h5.4Z"/>
          <path class="cls-2" d="M240.6,24.1h5.7v24.8h-5.7v-24.8Z"/>
          <path class="cls-2" d="M265.9,28.8h-7.9v-4.7h21.6v4.7h-7.9v20.2h-5.7v-20.2h-.1Z"/>
          <path class="cls-2" d="M313.9,24.1v24.8h-5.7v-10.2h-11.3v10.2h-5.7v-24.8h5.7v9.8h11.3v-9.8s5.7,0,5.7,0Z"/>
        </g>
      </g>
    </g>
  </g>
</svg>