<?xml version="1.0" encoding="UTF-8"?>
<svg xmlns="http://www.w3.org/2000/svg" version="1.1" xmlns:xlink="http://www.w3.org/1999/xlink" viewBox="0 0 845 206.6">
  <defs>
    <style>
      .cls-1 {
        fill: url(#linear-gradient-2);
      }

      .cls-2 {
        fill: url(#linear-gradient-4);
      }

      .cls-3 {
        fill: url(#linear-gradient-3);
      }

      .cls-4 {
        fill: url(#linear-gradient-5);
      }

      .cls-5 {
        fill: url(#linear-gradient);
      }
    </style>
    <linearGradient id="linear-gradient" x1="91.8" y1="765.8" x2="91.8" y2="606.8" gradientTransform="translate(0 -584)" gradientUnits="userSpaceOnUse">
      <stop offset="0" stop-color="#ff5923"/>
      <stop offset="1" stop-color="#f69000"/>
    </linearGradient>
    <linearGradient id="linear-gradient-2" x1="385.9" y1="765.6" x2="385.9" y2="606.7" gradientTransform="translate(0 -584)" gradientUnits="userSpaceOnUse">
      <stop offset="0" stop-color="#ff5923"/>
      <stop offset="1" stop-color="#f69000"/>
    </linearGradient>
    <linearGradient id="linear-gradient-3" x1="480.1" y1="765.6" x2="480.1" y2="606.7" gradientTransform="translate(0 -584)" gradientUnits="userSpaceOnUse">
      <stop offset="0" stop-color="#ff5923"/>
      <stop offset="1" stop-color="#f69000"/>
    </linearGradient>
    <linearGradient id="linear-gradient-4" x1="214.6" y1="795.7" x2="214.6" y2="576.6" gradientTransform="translate(0 -584)" gradientUnits="userSpaceOnUse">
      <stop offset="0" stop-color="#ff5923"/>
      <stop offset="1" stop-color="#f69000"/>
    </linearGradient>
    <linearGradient id="linear-gradient-5" x1="279.2" y1="795.7" x2="279.2" y2="576.6" gradientTransform="translate(0 -584)" gradientUnits="userSpaceOnUse">
      <stop offset="0" stop-color="#ff5923"/>
      <stop offset="1" stop-color="#f69000"/>
    </linearGradient>
  </defs>
  <!-- Generator: Adobe Illustrator 28.6.0, SVG Export Plug-In . SVG Version: 1.2.0 Build 709)  -->
  <g>
    <g id="Layer_1">
      <g>
        <path d="M526.7,135.4h34.8v9h-24.7v9.4h21.8v9h-21.8v9.7h25.1v9h-35.2v-46.2Z"/>
        <path d="M583.6,158.1l-15.4-22.7h11.9l9.6,15,9.8-15h11.5l-15.4,22.6,16.1,23.6h-11.9l-10.4-15.8-10.4,15.8h-11.5l16.1-23.5Z"/>
        <path d="M619.3,135.4h18.9c11,0,17.7,6.5,17.7,16h0c0,10.8-8.3,16.4-18.7,16.4h-7.7v13.9h-10.2v-46.2ZM637.5,158.7c5.1,0,8.1-3,8.1-7h0c0-4.7-3.2-7.1-8.2-7.1h-7.9v14.1h8.1Z"/>
        <path d="M663.4,135.4h21.1c5.9,0,10.4,1.6,13.5,4.7s4,6.2,4,10.6h0c0,7.6-4,12.3-9.9,14.5l11.3,16.5h-11.9l-9.9-14.8h-8v14.8h-10.2v-46.2ZM683.8,157.8c4.9,0,7.8-2.6,7.8-6.5h0c0-4.5-3-6.7-8-6.7h-10.1v13.3h10.3Z"/>
        <path d="M711.1,135.4h34.8v9h-24.7v9.4h21.8v9h-21.8v9.7h25.1v9h-35.2v-46.2Z"/>
        <path d="M752.1,174.9l6-7.2c4.2,3.4,8.5,5.6,13.8,5.6s6.7-1.6,6.7-4.4h0c0-2.7-1.6-4-9.3-6-9.3-2.4-15.3-5-15.3-14.1h0c0-8.5,6.7-14.1,16.2-14.1s12.5,2.1,17.2,5.9l-5.3,7.7c-4.1-2.8-8.1-4.6-12-4.6s-5.9,1.8-5.9,4h0c0,3.2,2,4.2,10,6.2,9.4,2.4,14.7,5.8,14.7,13.9h0c0,9.3-7,14.5-17,14.5s-14.1-2.4-19.6-7.4Z"/>
        <path d="M793.7,174.9l6-7.2c4.2,3.4,8.5,5.6,13.8,5.6s6.7-1.6,6.7-4.4h0c0-2.7-1.6-4-9.3-6-9.3-2.4-15.3-5-15.3-14.1h0c0-8.5,6.7-14.1,16.2-14.1s12.5,2.1,17.2,5.9l-5.3,7.7c-4.1-2.8-8.1-4.6-12-4.6s-5.9,1.8-5.9,4h0c0,3.2,2,4.2,10,6.2,9.4,2.4,14.7,5.8,14.7,13.9h0c0,9.3-7,14.5-17,14.5s-14.1-2.4-19.6-7.4Z"/>
      </g>
      <g id="_Layer_">
        <path class="cls-5" d="M23.6,181.7h136.3v-66.1l-13.7-11.7,13.7-11.4V22.8H23.6v159h0ZM69.1,63.9h45.4v20h-45.4v-20ZM69.1,123.4h45.4v20h-45.4s0-20,0-20Z"/>
        <polygon class="cls-1" points="379.1 22.7 333.7 22.7 333.7 181.6 438 181.6 438 136.2 379.1 136.2 379.1 22.7"/>
        <polygon class="cls-3" points="412 22.7 412 68.1 457.4 68.1 457.4 181.6 502.8 181.6 502.8 68.1 548.2 68.1 548.2 22.7 412 22.7"/>
        <g>
          <polygon class="cls-2" points="211.2 121.1 250.8 22.7 178.4 22.7 178.4 181.6 234.8 181.6 241.3 121.1 211.2 121.1"/>
          <polygon class="cls-4" points="314.7 22.7 259.7 22.7 253.1 83.2 283.3 83.2 243.6 181.6 314.7 181.6 314.7 22.7"/>
        </g>
      </g>
    </g>
  </g>
</svg>