<?xml version="1.0" encoding="UTF-8"?>
<svg xmlns="http://www.w3.org/2000/svg" version="1.1" xmlns:xlink="http://www.w3.org/1999/xlink" viewBox="0 0 845 206.6">
  <defs>
    <style>
      .cls-1 {
        fill: url(#linear-gradient-2);
      }

      .cls-2 {
        fill: url(#linear-gradient-4);
      }

      .cls-3 {
        fill: url(#linear-gradient-3);
      }

      .cls-4 {
        fill: url(#linear-gradient-5);
      }

      .cls-5 {
        font-family: Gotham-Bold, Gotham;
        font-size: 66px;
        font-weight: 700;
      }

      .cls-6 {
        fill: url(#linear-gradient);
      }
    </style>
    <linearGradient id="linear-gradient" x1="91.8" y1="765.8" x2="91.8" y2="606.8" gradientTransform="translate(0 -584)" gradientUnits="userSpaceOnUse">
      <stop offset="0" stop-color="#ff5923"/>
      <stop offset="1" stop-color="#f69000"/>
    </linearGradient>
    <linearGradient id="linear-gradient-2" x1="385.9" y1="765.6" x2="385.9" y2="606.7" gradientTransform="translate(0 -584)" gradientUnits="userSpaceOnUse">
      <stop offset="0" stop-color="#ff5923"/>
      <stop offset="1" stop-color="#f69000"/>
    </linearGradient>
    <linearGradient id="linear-gradient-3" x1="480.1" y1="765.6" x2="480.1" y2="606.7" gradientTransform="translate(0 -584)" gradientUnits="userSpaceOnUse">
      <stop offset="0" stop-color="#ff5923"/>
      <stop offset="1" stop-color="#f69000"/>
    </linearGradient>
    <linearGradient id="linear-gradient-4" x1="214.6" y1="795.7" x2="214.6" y2="576.6" gradientTransform="translate(0 -584)" gradientUnits="userSpaceOnUse">
      <stop offset="0" stop-color="#ff5923"/>
      <stop offset="1" stop-color="#f69000"/>
    </linearGradient>
    <linearGradient id="linear-gradient-5" x1="279.2" y1="795.7" x2="279.2" y2="576.6" gradientTransform="translate(0 -584)" gradientUnits="userSpaceOnUse">
      <stop offset="0" stop-color="#ff5923"/>
      <stop offset="1" stop-color="#f69000"/>
    </linearGradient>
  </defs>
  <!-- Generator: Adobe Illustrator 28.6.0, SVG Export Plug-In . SVG Version: 1.2.0 Build 709)  -->
  <g>
    <g id="Layer_1">
      <text class="cls-5" transform="translate(521.2 181.6)"><tspan x="0" y="0">EXPRESS</tspan></text>
      <g id="_Layer_">
        <path class="cls-6" d="M23.6,181.7h136.3v-66.1l-13.7-11.7,13.7-11.4V22.8H23.6v159h0ZM69.1,63.9h45.4v20h-45.4v-20ZM69.1,123.4h45.4v20h-45.4s0-20,0-20Z"/>
        <polygon class="cls-1" points="379.1 22.7 333.7 22.7 333.7 181.6 438 181.6 438 136.2 379.1 136.2 379.1 22.7"/>
        <polygon class="cls-3" points="412 22.7 412 68.1 457.4 68.1 457.4 181.6 502.8 181.6 502.8 68.1 548.2 68.1 548.2 22.7 412 22.7"/>
        <g>
          <polygon class="cls-2" points="211.2 121.1 250.8 22.7 178.4 22.7 178.4 181.6 234.8 181.6 241.3 121.1 211.2 121.1"/>
          <polygon class="cls-4" points="314.7 22.7 259.7 22.7 253.1 83.2 283.3 83.2 243.6 181.6 314.7 181.6 314.7 22.7"/>
        </g>
      </g>
    </g>
  </g>
</svg>